<svg width="1059" height="541" viewBox="0 0 1059 541" fill="none" xmlns="http://www.w3.org/2000/svg">
<path fill-rule="evenodd" clip-rule="evenodd" d="M529.346 -177.471C276.5 -177.471 71.5283 27.5006 71.5283 280.346C71.5283 533.192 276.5 738.164 529.346 738.164C782.191 738.164 987.163 533.192 987.163 280.346C987.163 27.5006 782.191 -177.471 529.346 -177.471ZM0.548828 280.346C0.548828 -11.7003 237.299 -248.451 529.346 -248.451C821.392 -248.451 1058.14 -11.7003 1058.14 280.346C1058.14 572.393 821.392 809.143 529.346 809.143C237.299 809.143 0.548828 572.393 0.548828 280.346Z" fill="url(#paint0_linear_1512_6981)" fill-opacity="0.1"/>
<path fill-rule="evenodd" clip-rule="evenodd" d="M529.347 -60.3562C341.183 -60.3562 188.645 92.181 188.645 280.345C188.645 468.509 341.183 621.047 529.347 621.047C717.511 621.047 870.048 468.509 870.048 280.345C870.048 92.181 717.511 -60.3562 529.347 -60.3562ZM117.666 280.345C117.666 52.9801 301.982 -131.336 529.347 -131.336C756.712 -131.336 941.028 52.9801 941.028 280.345C941.028 507.71 756.712 692.026 529.347 692.026C301.982 692.026 117.666 507.71 117.666 280.345Z" fill="url(#paint1_linear_1512_6981)" fill-opacity="0.1"/>
<path fill-rule="evenodd" clip-rule="evenodd" d="M529.345 70.9585C413.703 70.9585 319.956 164.705 319.956 280.348C319.956 395.99 413.703 489.737 529.345 489.737C644.988 489.737 738.735 395.99 738.735 280.348C738.735 164.705 644.988 70.9585 529.345 70.9585ZM248.977 280.348C248.977 125.504 374.502 -0.0209351 529.345 -0.0209351C684.189 -0.0209351 809.714 125.504 809.714 280.348C809.714 435.191 684.189 560.717 529.345 560.717C374.502 560.717 248.977 435.191 248.977 280.348Z" fill="url(#paint2_linear_1512_6981)" fill-opacity="0.11"/>
<path fill-rule="evenodd" clip-rule="evenodd" d="M529.346 202.269C486.225 202.269 451.269 237.226 451.269 280.347C451.269 323.468 486.225 358.424 529.346 358.424C572.467 358.424 607.423 323.468 607.423 280.347C607.423 237.226 572.467 202.269 529.346 202.269ZM380.289 280.347C380.289 198.025 447.024 131.29 529.346 131.29C611.668 131.29 678.403 198.025 678.403 280.347C678.403 362.668 611.668 429.403 529.346 429.403C447.024 429.403 380.289 362.668 380.289 280.347Z" fill="url(#paint3_linear_1512_6981)" fill-opacity="0.1"/>
<defs>
<linearGradient id="paint0_linear_1512_6981" x1="529.346" y1="-248.451" x2="529.346" y2="809.143" gradientUnits="userSpaceOnUse">
<stop stop-opacity="0.71"/>
<stop offset="0.675" stop-opacity="0"/>
</linearGradient>
<linearGradient id="paint1_linear_1512_6981" x1="529.347" y1="-131.336" x2="529.347" y2="692.026" gradientUnits="userSpaceOnUse">
<stop stop-opacity="0.71"/>
<stop offset="0.675" stop-opacity="0"/>
</linearGradient>
<linearGradient id="paint2_linear_1512_6981" x1="529.345" y1="-0.0209351" x2="529.345" y2="560.717" gradientUnits="userSpaceOnUse">
<stop stop-opacity="0.71"/>
<stop offset="0.675" stop-opacity="0"/>
</linearGradient>
<linearGradient id="paint3_linear_1512_6981" x1="529.346" y1="131.29" x2="529.346" y2="429.403" gradientUnits="userSpaceOnUse">
<stop stop-opacity="0.71"/>
<stop offset="0.675" stop-opacity="0"/>
</linearGradient>
</defs>
</svg>
