<svg width="122" height="21" viewBox="0 0 122 21" fill="none" xmlns="http://www.w3.org/2000/svg">
<path d="M9.68321 1.48792C9.83538 1.01958 10.4979 1.01958 10.6501 1.48792L12.3351 6.67374C12.4031 6.88319 12.5983 7.02499 12.8186 7.02499H18.2713C18.7637 7.02499 18.9684 7.65513 18.57 7.94458L14.1587 11.1496C13.9806 11.279 13.906 11.5085 13.9741 11.7179L15.659 16.9038C15.8112 17.3721 15.2752 17.7615 14.8768 17.4721L10.4655 14.2671C10.2873 14.1376 10.046 14.1376 9.86788 14.2671L5.45655 17.4721C5.05816 17.7615 4.52213 17.3721 4.6743 16.9038L6.35928 11.7179C6.42733 11.5085 6.35278 11.279 6.17462 11.1496L1.76329 7.94458C1.3649 7.65513 1.56965 7.02499 2.06208 7.02499H7.51478C7.735 7.02499 7.93018 6.88319 7.99824 6.67374L9.68321 1.48792Z" fill="#FDD836"/>
<path d="M35.0998 1.48792C35.252 1.01958 35.9146 1.01958 36.0667 1.48792L37.7517 6.67374C37.8198 6.88319 38.015 7.02499 38.2352 7.02499H43.6879C44.1803 7.02499 44.3851 7.65513 43.9867 7.94458L39.5753 11.1496C39.3972 11.279 39.3226 11.5085 39.3907 11.7179L41.0757 16.9038C41.2278 17.3721 40.6918 17.7615 40.2934 17.4721L35.8821 14.2671C35.7039 14.1376 35.4627 14.1376 35.2845 14.2671L30.8732 17.4721C30.4748 17.7615 29.9388 17.3721 30.0909 16.9038L31.7759 11.7179C31.844 11.5085 31.7694 11.279 31.5912 11.1496L27.1799 7.94458C26.7815 7.65513 26.9863 7.02499 27.4787 7.02499H32.9314C33.1516 7.02499 33.3468 6.88319 33.4149 6.67374L35.0998 1.48792Z" fill="#FDD836"/>
<path d="M60.5166 1.48792C60.6688 1.01958 61.3313 1.01958 61.4835 1.48792L63.1685 6.67374C63.2365 6.88319 63.4317 7.02499 63.6519 7.02499H69.1046C69.5971 7.02499 69.8018 7.65513 69.4034 7.94458L64.9921 11.1496C64.8139 11.279 64.7394 11.5085 64.8074 11.7179L66.4924 16.9038C66.6446 17.3721 66.1085 17.7615 65.7102 17.4721L61.2988 14.2671C61.1207 14.1376 60.8794 14.1376 60.7012 14.2671L56.2899 17.4721C55.8915 17.7615 55.3555 17.3721 55.5077 16.9038L57.1927 11.7179C57.2607 11.5085 57.1862 11.279 57.008 11.1496L52.5967 7.94458C52.1983 7.65513 52.403 7.02499 52.8955 7.02499H58.3482C58.5684 7.02499 58.7636 6.88319 58.8316 6.67374L60.5166 1.48792Z" fill="#FDD836"/>
<path d="M85.9332 1.48792C86.0854 1.01958 86.7479 1.01958 86.9001 1.48792L88.5851 6.67374C88.6531 6.88319 88.8483 7.02499 89.0686 7.02499H94.5213C95.0137 7.02499 95.2184 7.65513 94.82 7.94458L90.4087 11.1496C90.2306 11.279 90.156 11.5085 90.2241 11.7179L91.909 16.9038C92.0612 17.3721 91.5252 17.7615 91.1268 17.4721L86.7155 14.2671C86.5373 14.1376 86.296 14.1376 86.1179 14.2671L81.7065 17.4721C81.3082 17.7615 80.7721 17.3721 80.9243 16.9038L82.6093 11.7179C82.6773 11.5085 82.6028 11.279 82.4246 11.1496L78.0133 7.94458C77.6149 7.65513 77.8196 7.02499 78.3121 7.02499H83.7648C83.985 7.02499 84.1802 6.88319 84.2482 6.67374L85.9332 1.48792Z" fill="#FDD836"/>
<path d="M111.35 1.48792C111.502 1.01958 112.165 1.01958 112.317 1.48792L114.002 6.67374C114.07 6.88319 114.265 7.02499 114.485 7.02499H119.938C120.43 7.02499 120.635 7.65513 120.237 7.94458L115.825 11.1496C115.647 11.279 115.573 11.5085 115.641 11.7179L117.326 16.9038C117.478 17.3721 116.942 17.7615 116.543 17.4721L112.132 14.2671C111.954 14.1376 111.713 14.1376 111.535 14.2671L107.123 17.4721C106.725 17.7615 106.189 17.3721 106.341 16.9038L108.026 11.7179C108.094 11.5085 108.019 11.279 107.841 11.1496L103.43 7.94458C103.032 7.65513 103.236 7.02499 103.729 7.02499H109.181C109.402 7.02499 109.597 6.88319 109.665 6.67374L111.35 1.48792Z" fill="#FDD836"/>
</svg>
