<svg width="50" height="50" viewBox="0 0 50 50" fill="none" xmlns="http://www.w3.org/2000/svg">
<g clip-path="url(#clip0_3915_4225)">
<path d="M36.862 24.9996C36.8562 23.132 36.656 21.2701 36.2648 19.444H41.2648C41.0073 18.6823 40.6963 17.9397 40.3342 17.2218H35.6814C34.8068 14.2996 33.4501 11.5441 31.6675 9.06901C30.5286 8.59012 29.3411 8.2362 28.1259 8.01345C30.568 10.6374 32.4114 13.7602 33.5286 17.1662H26.0425V7.77734H23.9592V17.1801H16.4731C17.5926 13.768 19.4409 10.6401 21.8898 8.01345C20.6797 8.23249 19.4969 8.58174 18.362 9.05512C16.5723 11.5199 15.2064 14.2659 14.3203 17.1801H9.63976C9.2711 17.9111 8.95547 18.6677 8.69531 19.444H13.737C13.3457 21.2701 13.1456 23.132 13.1398 24.9996C13.1436 27.0423 13.3765 29.0782 13.8342 31.069H8.91753C9.20487 31.8475 9.54836 32.6041 9.94531 33.3329H14.4314C15.2817 35.9937 16.5423 38.5055 18.1675 40.7773C19.3314 41.2765 20.5472 41.6445 21.7925 41.8746C19.5258 39.402 17.7825 36.4965 16.6675 33.3329H23.9731V42.1385H26.0564V33.3329H33.3342C32.2155 36.4979 30.4674 39.4035 28.1953 41.8746C29.4465 41.6366 30.667 41.2593 31.8342 40.7496C33.4569 38.4862 34.7174 35.984 35.5703 33.3329H40.0148C40.4099 32.6176 40.7534 31.875 41.0425 31.1107H36.112C36.5915 29.1084 36.8431 27.0584 36.862 24.9996ZM23.9592 31.069H15.987C15.0092 27.2466 14.9663 23.2449 15.862 19.4023H23.9592V31.069ZM34.0148 31.069H26.0425V19.444H34.1398C34.5387 21.2686 34.7344 23.1319 34.7231 24.9996C34.7344 27.044 34.4965 29.0821 34.0148 31.069Z" fill="#253243"/>
<path d="M24.9996 2.77734C20.6044 2.77734 16.308 4.08065 12.6536 6.52246C8.99914 8.96427 6.15087 12.4349 4.46892 16.4955C2.78697 20.5561 2.3469 25.0242 3.20435 29.3349C4.0618 33.6456 6.17826 37.6052 9.28609 40.7131C12.3939 43.8209 16.3535 45.9373 20.6642 46.7948C24.9749 47.6522 29.4431 47.2122 33.5037 45.5302C37.5642 43.8483 41.0349 41 43.4767 37.3456C45.9185 33.6911 47.2218 29.3947 47.2218 24.9996C47.2218 19.1059 44.8805 13.4536 40.7131 9.28608C36.5456 5.11861 30.8933 2.77734 24.9996 2.77734ZM24.9996 44.444C21.1538 44.444 17.3944 43.3036 14.1968 41.167C10.9992 39.0304 8.50696 35.9936 7.03525 32.4406C5.56355 28.8876 5.17848 24.978 5.92875 21.2061C6.67902 17.4343 8.53092 13.9696 11.2503 11.2503C13.9696 8.53091 17.4343 6.67901 21.2062 5.92874C24.978 5.17847 28.8876 5.56354 32.4406 7.03524C35.9937 8.50695 39.0305 10.9992 41.167 14.1968C43.3036 17.3944 44.444 21.1538 44.444 24.9996C44.444 30.1566 42.3954 35.1023 38.7489 38.7489C35.1023 42.3954 30.1566 44.444 24.9996 44.444Z" fill="#253243"/>
</g>
<defs>
<clipPath id="clip0_3915_4225">
<rect width="50" height="50" fill="white"/>
</clipPath>
</defs>
</svg>
