<svg width="50" height="50" viewBox="0 0 50 50" fill="none" xmlns="http://www.w3.org/2000/svg">
<path d="M9.375 6.25V40.625H28.125V6.25H9.375ZM7.8125 3.125H29.6875C30.1019 3.125 30.4993 3.28962 30.7924 3.58265C31.0854 3.87567 31.25 4.2731 31.25 4.6875V42.1875C31.25 42.6019 31.0854 42.9993 30.7924 43.2924C30.4993 43.5854 30.1019 43.75 29.6875 43.75H7.8125C7.3981 43.75 7.00067 43.5854 6.70765 43.2924C6.41462 42.9993 6.25 42.6019 6.25 42.1875V4.6875C6.25 4.2731 6.41462 3.87567 6.70765 3.58265C7.00067 3.28962 7.3981 3.125 7.8125 3.125Z" fill="#253243"/>
<path d="M12.5 12.5H25V15.625H12.5V12.5ZM12.5 21.875H25V25H12.5V21.875ZM12.5 31.25H25V34.375H12.5V31.25ZM31.25 25H37.5V28.125H31.25V25ZM31.25 31.25H37.5V34.375H31.25V31.25ZM3.125 40.625H46.875V43.75H3.125V40.625Z" fill="#253243"/>
<path d="M31.25 18.75V40.625H40.625V18.75H31.25ZM29.6875 15.625H42.1875C42.6019 15.625 42.9993 15.7896 43.2924 16.0826C43.5854 16.3757 43.75 16.7731 43.75 17.1875V42.1875C43.75 42.6019 43.5854 42.9993 43.2924 43.2924C42.9993 43.5854 42.6019 43.75 42.1875 43.75H29.6875C29.2731 43.75 28.8757 43.5854 28.5826 43.2924C28.2896 42.9993 28.125 42.6019 28.125 42.1875V17.1875C28.125 16.7731 28.2896 16.3757 28.5826 16.0826C28.8757 15.7896 29.2731 15.625 29.6875 15.625Z" fill="#253243"/>
</svg>
