<svg width="62" height="44" viewBox="0 0 62 44" fill="none" xmlns="http://www.w3.org/2000/svg">
<path d="M31.0009 11.2531L36.3689 20.2243C36.3694 20.225 36.3698 20.2258 36.3703 20.2266C37.3837 21.9353 39.2502 22.9997 41.2399 22.9997C41.7619 22.9997 42.2942 22.93 42.8118 22.7731L54.8002 19.3241V35.3786C54.8002 36.3491 54.1398 37.1983 53.2097 37.4367C53.2092 37.4368 53.2087 37.437 53.2082 37.4371L32.25 42.7189C32.2496 42.719 32.2493 42.7191 32.2489 42.7192C31.4313 42.923 30.5615 42.9237 29.7312 42.7189C29.7304 42.7187 29.7296 42.7186 29.7288 42.7184L8.78916 37.4363L8.7857 37.4355C7.86344 37.2063 7.20019 36.3625 7.20019 35.3786V19.325L19.188 22.7828C19.7059 22.9397 20.2383 23.0095 20.7605 23.0095C22.7523 23.0095 24.6175 21.9432 25.6394 20.2272C25.6397 20.2268 25.6399 20.2264 25.6401 20.226L31.0009 11.2531ZM40.7417 17.5898L32.6421 4.04682L55.3562 1.12631L55.359 1.12594C55.5968 1.09466 55.8372 1.21934 55.9506 1.44795L55.9509 1.44865L60.9358 11.4792C60.9363 11.4803 60.9369 11.4814 60.9374 11.4825C61.1046 11.832 60.9216 12.2323 60.5666 12.3387C60.5658 12.339 60.565 12.3392 60.5642 12.3395L41.4027 17.8541C41.4022 17.8543 41.4018 17.8544 41.4013 17.8545C41.151 17.925 40.8785 17.8182 40.7419 17.5899C40.7418 17.5899 40.7418 17.5898 40.7417 17.5898ZM6.6416 1.12721L29.3569 4.04673L21.2492 17.5795L21.249 17.58C21.1123 17.8084 20.8398 17.9152 20.5894 17.8448C20.5889 17.8446 20.5885 17.8445 20.588 17.8444L1.42009 12.3278C1.42002 12.3278 1.41996 12.3278 1.41989 12.3278C1.07517 12.2284 0.890236 11.8311 1.06062 11.4872C1.06066 11.4872 1.0607 11.4871 1.06074 11.487L6.04946 1.44865L6.0498 1.44795C6.15983 1.22611 6.38969 1.09953 6.6416 1.12721ZM32.1657 3.25015L32.2632 3.08731L55.2286 0.134469C55.8971 0.0465784 56.5461 0.398141 56.8464 1.00361L32.1657 3.25015Z" stroke="#253243" stroke-width="2"/>
</svg>
