<svg width="50" height="50" viewBox="0 0 50 50" fill="none" xmlns="http://www.w3.org/2000/svg">
<path d="M22.8989 30.8436C24.9931 29.4495 26.583 27.4184 27.4335 25.0508C28.284 22.6831 28.3501 20.1046 27.6218 17.6966C26.8935 15.2885 25.4097 13.1787 23.3896 11.6792C21.3696 10.1797 18.9206 9.37012 16.4048 9.37012C13.889 9.37012 11.44 10.1797 9.41997 11.6792C7.39991 13.1787 5.91604 15.2885 5.18778 17.6966C4.45952 20.1046 4.52554 22.6831 5.37608 25.0508C6.22661 27.4184 7.81651 29.4495 9.91065 30.8436C6.12255 32.2398 2.88742 34.8234 0.687994 38.2089C0.572399 38.3807 0.492108 38.5737 0.451785 38.7768C0.411463 38.9799 0.411914 39.189 0.453113 39.392C0.494312 39.5949 0.575437 39.7876 0.691772 39.9589C0.808107 40.1302 0.957332 40.2767 1.13077 40.3898C1.30421 40.5029 1.49841 40.5805 1.70207 40.6179C1.90574 40.6553 2.11481 40.6519 2.31713 40.6078C2.51945 40.5637 2.71099 40.4798 2.88061 40.361C3.05023 40.2422 3.19455 40.0909 3.30518 39.9159C4.72391 37.7338 6.66525 35.9407 8.95291 34.6994C11.2406 33.4581 13.8021 32.808 16.4048 32.808C19.0075 32.808 21.569 33.4581 23.8567 34.6994C26.1443 35.9407 28.0857 37.7338 29.5044 39.9159C29.7336 40.2565 30.0876 40.4932 30.4899 40.5749C30.8922 40.6566 31.3105 40.5766 31.6544 40.3524C31.9982 40.1281 32.24 39.7775 32.3274 39.3764C32.4149 38.9753 32.3409 38.5559 32.1216 38.2089C29.9222 34.8234 26.687 32.2398 22.8989 30.8436ZM7.81104 21.0936C7.81104 19.3939 8.31506 17.7324 9.25935 16.3192C10.2036 14.906 11.5458 13.8045 13.1161 13.154C14.6864 12.5036 16.4143 12.3334 18.0814 12.665C19.7484 12.9966 21.2796 13.8151 22.4815 15.0169C23.6833 16.2188 24.5018 17.75 24.8334 19.4171C25.165 21.0841 24.9948 22.812 24.3444 24.3823C23.6939 25.9526 22.5925 27.2948 21.1792 28.2391C19.766 29.1834 18.1045 29.6874 16.4048 29.6874C14.1264 29.6848 11.942 28.7785 10.3309 27.1675C8.71987 25.5564 7.81363 23.372 7.81104 21.0936ZM48.854 40.371C48.5069 40.5973 48.0842 40.6765 47.6787 40.5912C47.2733 40.5058 46.9183 40.2629 46.6919 39.9159C45.2749 37.7325 43.3338 35.9387 41.0457 34.6979C38.7575 33.4571 36.1952 32.8089 33.5923 32.8124C33.1779 32.8124 32.7805 32.6478 32.4874 32.3547C32.1944 32.0617 32.0298 31.6643 32.0298 31.2499C32.0298 30.8355 32.1944 30.438 32.4874 30.145C32.7805 29.852 33.1779 29.6874 33.5923 29.6874C34.8579 29.6862 36.1075 29.4055 37.252 28.8653C38.3966 28.3252 39.4076 27.5389 40.213 26.5627C41.0185 25.5865 41.5983 24.4445 41.9112 23.2182C42.2241 21.9919 42.2622 20.7117 42.023 19.4689C41.7837 18.2262 41.2729 17.0516 40.5271 16.0292C39.7813 15.0067 38.8188 14.1616 37.7085 13.5542C36.5982 12.9469 35.3675 12.5922 34.1042 12.5156C32.841 12.439 31.5764 12.6424 30.4009 13.1112C30.2092 13.1941 30.0029 13.2377 29.7941 13.2394C29.5853 13.2412 29.3782 13.2011 29.1852 13.1215C28.9922 13.0419 28.817 12.9244 28.6702 12.7759C28.5233 12.6275 28.4077 12.4511 28.3301 12.2573C28.2526 12.0634 28.2147 11.8559 28.2187 11.6472C28.2227 11.4384 28.2684 11.2325 28.3533 11.0418C28.4382 10.851 28.5605 10.6792 28.7129 10.5364C28.8653 10.3937 29.0448 10.283 29.2407 10.2108C31.9311 9.13786 34.9235 9.09925 37.6406 10.1024C40.3578 11.1056 42.6071 13.0795 43.9548 15.6433C45.3025 18.2071 45.6529 21.1791 44.9386 23.986C44.2242 26.793 42.4957 29.2359 40.0864 30.8436C43.8745 32.2398 47.1097 34.8234 49.3091 38.2089C49.5354 38.5559 49.6146 38.9787 49.5293 39.3842C49.4439 39.7896 49.201 40.1446 48.854 40.371Z" fill="#253243"/>
</svg>
